<svg width="21" height="23" viewBox="0 0 21 23" fill="none" xmlns="http://www.w3.org/2000/svg">
<path fill-rule="evenodd" clip-rule="evenodd" d="M1.75 6C1.75 5.49374 2.14175 5.08333 2.625 5.08333H18.375C18.8582 5.08333 19.25 5.49374 19.25 6C19.25 6.50626 18.8582 6.91667 18.375 6.91667H2.625C2.14175 6.91667 1.75 6.50626 1.75 6Z" fill="current"/>
<path fill-rule="evenodd" clip-rule="evenodd" d="M8.75 3.25C8.51794 3.25 8.29538 3.34658 8.13128 3.51849C7.96719 3.69039 7.875 3.92355 7.875 4.16667V6C7.875 6.50626 7.48325 6.91667 7 6.91667C6.51675 6.91667 6.125 6.50626 6.125 6V4.16667C6.125 3.43732 6.40156 2.73785 6.89385 2.22212C7.38613 1.7064 8.05381 1.41667 8.75 1.41667H12.25C12.9462 1.41667 13.6139 1.7064 14.1062 2.22212C14.5984 2.73785 14.875 3.43732 14.875 4.16667V6C14.875 6.50626 14.4832 6.91667 14 6.91667C13.5168 6.91667 13.125 6.50626 13.125 6V4.16667C13.125 3.92355 13.0328 3.69039 12.8687 3.51849C12.7046 3.34658 12.4821 3.25 12.25 3.25H8.75ZM4.375 5.08333C4.85825 5.08333 5.25 5.49374 5.25 6V18.8333C5.25 19.0764 5.34219 19.3096 5.50628 19.4815C5.67038 19.6534 5.89294 19.75 6.125 19.75H14.875C15.1071 19.75 15.3296 19.6534 15.4937 19.4815C15.6578 19.3096 15.75 19.0764 15.75 18.8333V6C15.75 5.49374 16.1418 5.08333 16.625 5.08333C17.1082 5.08333 17.5 5.49374 17.5 6V18.8333C17.5 19.5627 17.2234 20.2622 16.7312 20.7779C16.2389 21.2936 15.5712 21.5833 14.875 21.5833H6.125C5.42881 21.5833 4.76113 21.2936 4.26884 20.7779C3.77656 20.2622 3.5 19.5627 3.5 18.8333V6C3.5 5.49374 3.89175 5.08333 4.375 5.08333Z" fill="current"/>
<path fill-rule="evenodd" clip-rule="evenodd" d="M8.75 9.66667C9.23325 9.66667 9.625 10.0771 9.625 10.5833V16.0833C9.625 16.5896 9.23325 17 8.75 17C8.26675 17 7.875 16.5896 7.875 16.0833V10.5833C7.875 10.0771 8.26675 9.66667 8.75 9.66667Z" fill="current"/>
<path fill-rule="evenodd" clip-rule="evenodd" d="M12.25 9.66667C12.7332 9.66667 13.125 10.0771 13.125 10.5833V16.0833C13.125 16.5896 12.7332 17 12.25 17C11.7668 17 11.375 16.5896 11.375 16.0833V10.5833C11.375 10.0771 11.7668 9.66667 12.25 9.66667Z" fill="current"/>
</svg>
